<?xml version="1.0" encoding="utf-8"?>
<!-- Generator: Adobe Illustrator 16.0.0, SVG Export Plug-In . SVG Version: 6.00 Build 0)  -->
<!DOCTYPE svg PUBLIC "-//W3C//DTD SVG 1.1//EN" "http://www.w3.org/Graphics/SVG/1.1/DTD/svg11.dtd">
<svg version="1.1" id="Layer_1" xmlns="http://www.w3.org/2000/svg" xmlns:xlink="http://www.w3.org/1999/xlink" x="0px" y="0px"
	 width="502px" height="277px" viewBox="0 0 502 277" enable-background="new 0 0 502 277" xml:space="preserve">
<g id="Layer_2">
</g>
<g id="Layer_1_1_">
	<path fill="#87C6B1" stroke="#49BEA4" stroke-width="2" stroke-miterlimit="10" d="M383.771,127.257c0,0,28.484,11.005,5.605,14.22
		c-22.879,3.211-37.329-2.708-40.338-3.729c-3.008-1.022-28.349-9.948,2.776-24.386c22.77-10.562,49.881-2.052,52.688-2.047
		c8.205,0.018,37.347,14.166,9.943,19.366C397.854,133.831,384.669,127.729,383.771,127.257z"/>
	<text transform="matrix(1 0 0 1 352.7578 128.7178)" fill="#FFFFFF" font-family="'Helvetica'" font-size="10">child</text>
	<path fill="#87C6B1" stroke="#49BEA4" stroke-width="2" stroke-miterlimit="10" d="M266.704,35.851c0,0-23.072,8.968-4.347,11.234
		c18.729,2.266,30.427-2.547,32.865-3.384c2.438-0.838,22.979-8.136-2.662-19.129c-18.758-8.043-40.75-1.049-43.041-1.014
		c-6.696,0.106-30.254,11.55-7.801,15.328C255.314,41.174,265.979,36.231,266.704,35.851z"/>
	<text transform="matrix(1 0 0 1 260.6348 32.7041)" fill="#FFFFFF" font-family="'Helvetica'" font-size="10">parent</text>
	<path fill="#87C6B1" stroke="#49BEA4" stroke-width="2" stroke-miterlimit="10" d="M362.056,33.054c0,0-26.005-10.604-3.923-11.066
		c22.084-0.46,35.24,5.171,38.001,6.186c2.76,1.016,25.979,9.806-5.062,17.933c-22.706,5.945-47.652-2.686-50.321-2.927
		c-7.802-0.706-34.12-13.708-7.536-15.267C349.312,26.967,361.247,32.626,362.056,33.054z"/>
	<text transform="matrix(1 0 0 1 350.584 42.1211)" fill="#FFFFFF" font-family="'Helvetica'" font-size="10">educator</text>
	<path fill="#87C6B1" stroke="#49BEA4" stroke-width="2" stroke-miterlimit="10" d="M324.505,213.991c0,0,18.59,7.6-8.282,15.61
		c-26.873,8.008-50.883-1.136-54.787-2.436c-3.902-1.301-36.868-12.771-2.888-40.071c24.854-19.972,59.856-9.392,63.257-9.724
		c9.937-0.969,52.013,16.581,21.95,32.369C329.415,217.271,325.714,214.65,324.505,213.991z"/>
	<text transform="matrix(1 0 0 1 267.2275 201.6816)" fill="#FFFFFF" font-family="'Helvetica'" font-size="10">mental health </text>
	<text transform="matrix(1 0 0 1 278.0703 212.6816)" fill="#FFFFFF" font-family="'Helvetica'" font-size="10">therapist</text>
	<path fill="#87C6B1" stroke="#49BEA4" stroke-width="2" stroke-miterlimit="10" d="M433.473,168.247
		c0,0,35.058-14.062,6.359-17.056c-28.698-2.99-46.466,4.541-50.176,5.859c-3.709,1.32-34.932,12.805,4.562,28.809
		c28.89,11.705,62.345,0.649,65.847,0.543c10.236-0.312,45.974-18.123,11.537-23.311
		C450.752,159.951,434.573,167.654,433.473,168.247z"/>
	<text transform="matrix(1 0 0 1 392.9814 167.9316)" fill="#FFFFFF" font-family="'Helvetica'" font-size="10">speech </text>
	<text transform="matrix(1 0 0 1 389.9277 178.9316)" fill="#FFFFFF" font-family="'Helvetica'" font-size="10">therapist</text>
	<path fill="#87C6B1" stroke="#49BEA4" stroke-width="2" stroke-miterlimit="10" d="M95.755,84.215c0,0-20.586,8.821,8.91,10.044
		c29.496,1.222,47.214-6.435,50.928-7.805c3.713-1.371,34.95-13.253-6.331-25.588c-30.198-9.024-63.74,2.588-67.313,2.861
		c-10.442,0.801-45.606,20.866-10.122,23.764C93.314,89.247,94.665,84.802,95.755,84.215z"/>
	<text transform="matrix(1 0 0 1 104.3213 73.2451)" fill="#FFFFFF" font-family="'Helvetica'" font-size="10">clinical</text>
	<text transform="matrix(1 0 0 1 98.7612 84.2451)" fill="#FFFFFF" font-family="'Helvetica'" font-size="10">specialist</text>
	<path fill="#87C6B1" stroke="#49BEA4" stroke-width="2" stroke-miterlimit="10" d="M386.104,254.798c0,0-33.83,15.261,4.831,17.136
		c38.663,1.873,61.888-9.867,66.756-11.97c4.865-2.103,45.811-20.323-8.3-39.237c-39.582-13.838-83.548,3.969-88.229,4.388
		c-13.688,1.228-60.194,28.495-13.684,32.938C375.643,260.745,384.676,255.697,386.104,254.798z"/>
	<text transform="matrix(1 0 0 1 373.5293 238.75)" fill="#FFFFFF" font-family="'Helvetica'" font-size="10">therapeutic staff </text>
	<text transform="matrix(1 0 0 1 392.4277 249.75)" fill="#FFFFFF" font-family="'Helvetica'" font-size="10">support</text>
	<path fill="#87C6B1" stroke="#49BEA4" stroke-width="2" stroke-miterlimit="10" d="M177.755,23.241c0,0,37.881,6.218,6.965,9.701
		c-30.918,3.481-50.039-1.307-54.031-2.117c-3.991-0.812-37.598-7.927,4.975-21.51c31.143-9.936,67.153-3.236,70.926-3.313
		c11.026-0.221,49.477,11.374,12.378,16.732C196.501,25.98,178.938,23.63,177.755,23.241z"/>
	<text transform="matrix(1 0 0 1 145.0332 17.8125)" fill="#FFFFFF" font-family="'Helvetica'" font-size="10">psychiatrist</text>
	<path fill="#87C6B1" stroke="#49BEA4" stroke-width="2" stroke-miterlimit="10" d="M427.61,81.388c0,0-37.269,14.367-5.864,15.589
		c31.403,1.219,50.266-6.427,54.22-7.795c3.952-1.369,37.209-13.235-6.74-25.553c-32.149-9.012-67.859,2.584-71.664,2.856
		c-11.116,0.801-48.892,18.558-11.112,21.451C409.325,89.69,426.45,81.974,427.61,81.388z"/>
	<text transform="matrix(1 0 0 1 406.8301 76.7266)" fill="#FFFFFF" font-family="'Helvetica'" font-size="10">social worker</text>
	<path fill="#87C6B1" stroke="#49BEA4" stroke-width="2" stroke-miterlimit="10" d="M90.036,198.266c0,0-27.183-9.461,2.906-12.181
		c30.09-2.717,48.703,8.788,52.567,10.288c3.862,1.501,36.383,14.547-5.198,31.188c-30.419,12.176-65.281-0.445-68.947-0.625
		c-10.713-0.529-47.986-23.524-11.86-28.519C81.38,195.393,88.894,197.604,90.036,198.266z"/>
	<text transform="matrix(1 0 0 1 86.1113 210.0273)" fill="#FFFFFF" font-family="'Helvetica'" font-size="10">behavioral</text>
	<text transform="matrix(1 0 0 1 88.6191 221.0273)" fill="#FFFFFF" font-family="'Helvetica'" font-size="10">specialist</text>
	<path fill="#87C6B1" stroke="#49BEA4" stroke-width="2" stroke-miterlimit="10" d="M43.255,136.491
		c0,0-17.083,14.868,18.723,16.249c35.805,1.379,57.312-7.266,61.82-8.812c4.507-1.549,42.426-14.965-7.686-28.893
		c-36.656-10.189-77.373,2.922-81.709,3.23c-12.677,0.904-55.803,21.849-12.672,24.254
		C32.256,143.105,29.505,141.241,43.255,136.491z"/>
	<text transform="matrix(1 0 0 1 50.75 129.0254)" fill="#FFFFFF" font-family="'Helvetica'" font-size="10">occupational</text>
	<text transform="matrix(1 0 0 1 59.6479 140.0254)" fill="#FFFFFF" font-family="'Helvetica'" font-size="10">therapist</text>
	<path fill="#87C6B1" stroke="#49BEA4" stroke-width="2" stroke-miterlimit="10" d="M196.505,165.491c0,0-31.751,11.146-4.33,12.616
		c27.422,1.463,43.894-7.725,47.347-9.368c3.451-1.646,32.492-15.905-5.886-30.711c-28.074-10.83-59.258,3.104-62.578,3.434
		c-9.709,0.961-42.693,22.304-9.705,25.78C181.329,169.35,195.493,166.193,196.505,165.491z"/>
	<text transform="matrix(1 0 0 1 188.2617 147.2402)" fill="#FFFFFF" font-family="'Helvetica'" font-size="10">physical</text>
	<text transform="matrix(1 0 0 1 187.1489 158.2402)" fill="#FFFFFF" font-family="'Helvetica'" font-size="10">therapist</text>
	<g>
		<g opacity="0.9">
			<path fill="#87C6B1" stroke="#49BEA4" stroke-width="2" stroke-miterlimit="10" d="M302.76,92.746"/>
			<path fill="#87C6B1" stroke="#49BEA4" stroke-width="2" stroke-miterlimit="10" d="M302.76,89.746
				c0.649,0.157,1.289,0.319,1.92,0.491c0,0,43.582,9.296,18.015,23.244c0,0-49.878,19.936-95.007,9.879
				c0,0-2.324-1.552,3.195-4.844c0,0,18.317-8.837,21.501-9.249c0,0-12.301,1.343-22.469,4.278
				c-10.17,2.936-45.714,4.196-49.006-2.68c0,0-5.521-9.298,27.021-17.143c0,0,1.35-0.276,3.76-0.719"/>
			
				<ellipse transform="matrix(-0.1386 -0.9903 0.9903 -0.1386 182.1069 380.4896)" fill="#87C6B1" stroke="#49BEA4" stroke-width="2" stroke-miterlimit="10" cx="256.522" cy="111.049" rx="1.543" ry="4.261"/>
		</g>
		<polygon fill="#F8EAF2" points="222.421,76.205 228.755,67.328 239.255,64.908 252.3,67.328 260.96,76.425 280.255,71.245 
			288.247,73.889 291.246,84.709 300.755,84.709 275.922,105.241 241.255,107.971 229.089,92.746 223.755,87.575 		"/>
		<path fill="#F8EAF2" stroke="#939598" stroke-miterlimit="10" d="M256.027,109.501c0,0-12.085,0.394-8.14-10.454
			c0,0,2.024-2.187,6.618-4.123c4.593-1.937,7.31-2.645,10.156-1.541s8.513,2.876-1.72,14.398
			C262.943,107.781,258.736,109.744,256.027,109.501z"/>
		<path fill="#F8EAF2" stroke="#939598" stroke-miterlimit="10" d="M232.157,67.328c0,0-1.647-19.889,2.584-17.794
			c4.23,2.095,14.176,17.43,14.176,17.43"/>
		<path fill="#F8EAF2" stroke="#939598" stroke-miterlimit="10" d="M223.628,84.215c0,0-16.434-22.312-12.815-28.433
			c0.677-1.146,11.718,9.588,16.703,14.576"/>
		<path fill="#F8EAF2" stroke="#939598" stroke-miterlimit="10" d="M247.097,89.135c0,0-19.553-29.415-21.438-29.957
			c-1.885-0.542,4.897,21.904,4.897,21.904"/>
		<path fill="#F8EAF2" stroke="#939598" stroke-miterlimit="10" d="M260.96,63.348c-0.249-1.478-2.661-12.325-7.752-11.226
			c-5.09,1.099-5.574,37.485-5.574,37.485"/>
		<path fill="#F8EAF2" stroke="#939598" stroke-miterlimit="10" d="M288.88,84.709c0.188-0.127,10.421-11.692,11.007-12.66
			c0.586-0.969,5.725-10.415,6.367-12.575c0.644-2.16-0.736-2.131-3.688-0.604c-2.946,1.526-8.666,6.968-11.057,9.181
			c-2.388,2.213-14.242,12.283-14.242,12.283"/>
		<path fill="#F8EAF2" stroke="#939598" stroke-miterlimit="10" d="M259.201,88.489"/>
		<path fill="#F8EAF2" stroke="#939598" stroke-miterlimit="10" d="M272.4,74.728c0,0-0.178-17.51-4.096-18.316
			c-3.918-0.806-20.176,24.275-18.691,35.31"/>
		<path fill="#F8EAF2" stroke="#939598" stroke-miterlimit="10" d="M286.059,72.934c0.553-1.425,8.719-24.25,3.393-21.385
			c-5.327,2.863-17.051,23.179-17.051,23.179"/>
		<path fill="#F8EAF2" stroke="#939598" stroke-miterlimit="10" d="M251.973,96.142c0,0-0.908-4.464-6.729-8.409
			c-5.822-3.945-6.012-5.534-9.036-7.061c-3.024-1.528-4.651-2.867-5.65,0.41c-1,3.277-1.726,6.316,0.796,10.938
			c2.521,4.625,6.107,13.881,17.598,15.306l2.028,1.244c-22.972,6.347-36.006,1.201-38.423,0.018
			c-2.416-1.184-3.787-1.326-3.959-4.373c-0.174-3.045,26.743,0.498,26.743,0.498l-3.646-1.521
			c-13.25,0.557-33.159-16.119-38.965-22.502c-5.805-6.38,2.328-4.079,5.734-2.73c3.379,1.338,16.626,6.948,16.626,6.948"/>
		<path fill="#F8EAF2" stroke="#939598" stroke-miterlimit="10" d="M230.129,89.182c0,0-12.476-9.271-16.337-13.288
			c-3.861-4.016-3.016-0.691-2.433,1.603c0.512,2.014,4.265,9.214,12.476,19.298c8.211,10.083,19.846,9.159,19.846,9.159"/>
		<path fill="#F8EAF2" stroke="#939598" stroke-miterlimit="10" d="M257.857,93.634c0,0,2.841-8.108,4.121-10.106
			c1.221-1.904,5.734-6.244,9.728-8.427c3.992-2.186,3.481-1.202,4.752,1.255c1.271,2.456,1.158,5.888-1.125,9.549
			c-2.282,3.663-6.558,11.105-6.604,10.894l0.015,1.586c0,0,18.385-12.514,21.164-14.365c2.776-1.853,15.663-12.932,11.803-5.943
			c-3.86,6.991-21.521,26.417-38.091,28.932l-2.521,1.297c2.066,2.908,18.305,3.476,26.219,2.801
			c7.914-0.672,10.451-1.829,13.894-2.565s1.267-2.616-4.265-5.224c-5.53-2.607-13.608-1.254-13.608-1.254l-9.008,1.261
			c11.69-0.259,20.915-6.049,23.021-7.149c2.104-1.1,19.56-12.422,23.299-18.083c3.737-5.662-4.946-1.897-7.563-0.843
			c-2.618,1.056-16.104,7.338-16.104,7.338"/>
		<path fill="#F8EAF2" stroke="#939598" stroke-miterlimit="10" d="M229.944,88.489c0,0,3.701,14.588,19.006,18.837"/>
	</g>
</g>
</svg>
