<?xml version="1.0" encoding="utf-8"?>
<!-- Generator: Adobe Illustrator 16.0.0, SVG Export Plug-In . SVG Version: 6.00 Build 0)  -->
<!DOCTYPE svg PUBLIC "-//W3C//DTD SVG 1.1//EN" "http://www.w3.org/Graphics/SVG/1.1/DTD/svg11.dtd">
<svg version="1.1" id="Layer_1" xmlns="http://www.w3.org/2000/svg" xmlns:xlink="http://www.w3.org/1999/xlink" x="0px" y="0px"
	 width="213.637px" height="59.09px" viewBox="0 0 213.637 59.09" enable-background="new 0 0 213.637 59.09" xml:space="preserve">
<g>
	<g>
		<path fill="none" stroke="#49BEA5" stroke-width="3" stroke-miterlimit="10" d="M62.917,29.194"/>
		<path fill="none" stroke="#49BEA5" stroke-width="3" stroke-miterlimit="10" d="M62.917,29.194
			c0.269,0.065,0.534,0.133,0.793,0.202c0,0,17.978,3.834,7.431,9.588c0,0-20.572,8.224-39.188,4.074c0,0-0.959-0.642,1.318-1.997
			c0,0,7.555-3.646,8.868-3.814c0,0-5.072,0.553-9.269,1.764c-4.195,1.211-18.854,1.73-20.212-1.105c0,0-2.279-3.834,11.146-7.068
			c0,0,0.556-0.114,1.551-0.297"/>
		
			<ellipse transform="matrix(-0.1392 -0.9903 0.9903 -0.1392 13.5579 85.2849)" fill="none" stroke="#49BEA5" stroke-width="3" stroke-miterlimit="10" cx="43.848" cy="36.75" rx="0.635" ry="1.758"/>
	</g>
	<g>
		<path fill="none" stroke="#49BEA5" stroke-miterlimit="10" d="M43.644,36.105c0,0-4.984,0.162-3.358-4.312
			c0,0,0.835-0.902,2.73-1.701c1.894-0.8,3.014-1.09,4.188-0.636c1.174,0.455,3.512,1.187-0.709,5.939
			C46.495,35.396,44.762,36.206,43.644,36.105z"/>
		<path fill="none" stroke="#49BEA5" stroke-miterlimit="10" d="M41.971,30.594c0,0-0.375-1.84-2.775-3.468
			c-2.401-1.626-2.48-2.282-3.727-2.913c-1.249-0.63-1.921-1.182-2.332,0.17c-0.413,1.352-0.713,2.605,0.328,4.512
			c1.039,1.908,2.52,5.727,7.259,6.312l0.837,0.512c-9.478,2.619-14.852,0.496-15.848,0.009c-0.998-0.487-1.562-0.548-1.634-1.804
			c-0.072-1.258,11.029,0.205,11.029,0.205l-1.504-0.627c-5.463,0.229-13.676-6.647-16.07-9.28
			c-2.394-2.633,0.961-1.683,2.365-1.127c1.393,0.552,6.856,2.867,6.856,2.867"/>
		<path fill="none" stroke="#49BEA5" stroke-miterlimit="10" d="M32.96,27.724c0,0-5.145-3.825-6.736-5.481
			c-1.594-1.655-1.244-0.284-1.003,0.662c0.21,0.83,1.759,3.8,5.146,7.958c3.388,4.159,8.185,3.778,8.185,3.778"/>
		<path fill="none" stroke="#49BEA5" stroke-miterlimit="10" d="M33.798,18.711c0,0-0.68-8.203,1.065-7.34
			c1.745,0.864,5.848,7.19,5.848,7.19"/>
		<path fill="none" stroke="#49BEA5" stroke-miterlimit="10" d="M30.28,25.676c0,0-6.778-9.202-5.287-11.728
			c0.279-0.472,4.835,3.954,6.891,6.012"/>
		<path fill="none" stroke="#49BEA5" stroke-miterlimit="10" d="M39.961,27.705c0,0-8.066-12.132-8.844-12.355
			c-0.778-0.225,2.021,9.034,2.021,9.034"/>
		<path fill="none" stroke="#49BEA5" stroke-miterlimit="10" d="M45.677,17.069c-0.104-0.609-1.097-5.084-3.195-4.63
			c-2.102,0.454-2.3,15.461-2.3,15.461"/>
		<path fill="none" stroke="#49BEA5" stroke-miterlimit="10" d="M57.193,25.879c0.077-0.052,4.298-4.822,4.542-5.221
			c0.238-0.399,2.357-4.296,2.625-5.187c0.266-0.89-0.307-0.878-1.522-0.249c-1.214,0.629-3.573,2.874-4.56,3.787
			c-0.986,0.913-5.874,5.066-5.874,5.066"/>
		<path fill="none" stroke="#49BEA5" stroke-miterlimit="10" d="M44.398,29.561c0,0,1.172-3.344,1.7-4.168
			c0.502-0.785,2.364-2.575,4.011-3.476c1.646-0.901,1.437-0.496,1.961,0.518c0.521,1.014,0.478,2.428-0.464,3.938
			c-0.943,1.511-2.706,4.581-2.726,4.493l0.008,0.654c0,0,7.582-5.161,8.729-5.925c1.146-0.765,6.459-5.334,4.867-2.451
			c-1.592,2.882-8.877,10.896-15.711,11.933l-1.041,0.534c0.853,1.2,7.551,1.435,10.813,1.155c3.264-0.279,4.311-0.756,5.729-1.059
			c1.422-0.305,0.523-1.08-1.758-2.154c-2.28-1.075-5.612-0.518-5.612-0.518l-3.717,0.521c4.823-0.106,8.628-2.495,9.495-2.948
			c0.866-0.455,8.064-5.125,9.608-7.458c1.543-2.337-2.04-0.784-3.119-0.348c-1.08,0.435-6.643,3.026-6.643,3.026"/>
		<path fill="none" stroke="#49BEA5" stroke-miterlimit="10" d="M44.951,27.439"/>
		<path fill="none" stroke="#49BEA5" stroke-miterlimit="10" d="M50.396,21.763c0,0-0.074-7.223-1.689-7.555
			s-8.32,10.013-7.709,14.564"/>
		<path fill="none" stroke="#49BEA5" stroke-miterlimit="10" d="M56.03,21.023c0.227-0.588,3.595-10.003,1.396-8.821
			c-2.197,1.182-7.03,9.561-7.03,9.561"/>
	</g>
</g>
<rect x="89.085" y="14.037" fill="none" width="144.553" height="39.281"/>
<g enable-background="new    ">
	<path fill="#49BEA5" d="M99.685,42.516h-2.08c-1.654,0-2.9-0.48-3.74-1.44c-0.84-0.96-1.26-2.226-1.26-3.8v-23.24h2.88v23.12
		c0,1.92,0.88,2.88,2.64,2.88h1.56V42.516z"/>
	<path fill="#49BEA5" d="M107.644,17.236h-3.24v-3.239h3.24V17.236z M107.445,42.516h-2.88v-19.68h2.88V42.516z"/>
	<path fill="#49BEA5" d="M121.684,42.516h-2.08c-1.653,0-2.899-0.48-3.74-1.44c-0.84-0.96-1.26-2.226-1.26-3.8v-23.24h2.88v23.12
		c0,1.92,0.88,2.88,2.641,2.88h1.56V42.516z"/>
	<path fill="#49BEA5" d="M140.404,22.836l-8.96,24.439c-0.374,1.014-0.84,1.786-1.399,2.32c-0.961,0.906-2.24,1.36-3.84,1.36h-1.24
		v-2.561h0.879c0.961,0,1.654-0.174,2.08-0.52c0.427-0.348,0.813-0.987,1.16-1.92l1.4-3.841l-7.08-19.279h3.12l5.399,15.8l5.36-15.8
		H140.404z"/>
	<path fill="#49BEA5" d="M160.084,32.676c0,3.974-0.801,6.76-2.4,8.359c-1.146,1.147-2.746,1.721-4.8,1.721
		c-2.374,0-4.228-0.854-5.56-2.561v11.12h-2.881V22.836h2.881v2.319c1.306-1.706,3.16-2.56,5.56-2.56c2.054,0,3.653,0.573,4.8,1.72
		C159.283,25.917,160.084,28.703,160.084,32.676z M157.203,32.676c0-2.32-0.279-4.054-0.84-5.2c-0.773-1.546-2.133-2.32-4.08-2.32
		c-1.946,0-3.307,0.774-4.08,2.32c-0.586,1.146-0.879,2.88-0.879,5.2s0.293,4.054,0.879,5.2c0.773,1.547,2.134,2.319,4.08,2.319
		c1.947,0,3.307-0.772,4.08-2.319C156.924,36.73,157.203,34.997,157.203,32.676z"/>
	<path fill="#49BEA5" d="M180.324,42.516h-2.881v-1.88c-1.413,1.414-3.307,2.12-5.68,2.12c-2.533,0-4.387-0.601-5.56-1.8
		c-0.987-1.014-1.479-2.347-1.479-4c0-1.761,0.593-3.146,1.779-4.16s2.86-1.521,5.02-1.521h5.92v-1.88c0-2.88-1.68-4.32-5.039-4.32
		c-2.24,0-3.895,0.747-4.961,2.24l-1.959-1.8c0.854-1.093,1.84-1.866,2.959-2.32c1.014-0.399,2.348-0.6,4-0.6
		c5.254,0,7.881,2.187,7.881,6.56V42.516z M177.443,35.556v-2.12h-5.52c-2.934,0-4.4,1.16-4.4,3.48c0,2.239,1.507,3.359,4.521,3.359
		c2.026,0,3.493-0.439,4.399-1.319C177.11,38.316,177.443,37.183,177.443,35.556z"/>
	<path fill="#49BEA5" d="M201.924,42.516h-2.881v-2.36c-1.328,1.734-3.189,2.601-5.582,2.601c-2.047,0-3.643-0.573-4.785-1.721
		c-1.595-1.6-2.393-4.386-2.393-8.359s0.801-6.76,2.4-8.36c1.146-1.146,2.746-1.72,4.8-1.72c2.4,0,4.253,0.84,5.56,2.52v-11.08
		h2.881V42.516z M199.043,32.676c0-2.32-0.279-4.054-0.84-5.2c-0.773-1.546-2.133-2.32-4.08-2.32c-1.946,0-3.307,0.774-4.08,2.32
		c-0.586,1.146-0.879,2.88-0.879,5.2s0.293,4.054,0.879,5.2c0.773,1.547,2.134,2.319,4.08,2.319c1.947,0,3.307-0.772,4.08-2.319
		C198.763,36.73,199.043,34.997,199.043,32.676z"/>
</g>
</svg>
